<svg xmlns="http://www.w3.org/2000/svg" viewBox="0 0 64 64" width="64" height="64" fill="none" stroke="#D17B5E" stroke-width="2" stroke-linecap="round" stroke-linejoin="round">
  <path d="M 53.6 50.2 C 53.2 53.4 50.4 55.7 47.4 55.4 C 44 55 41.6 51.8 42.1 48.5 C 42.6 45.4 45.6 43.2 48.7 43.7 C 51.8 44.3 54 47.2 53.6 50.2"></path>
  <path d="M 47.5 47.8 C 48.2 47.8 48.8 48.4 48.7 49.2"></path>
  <path d="M 21.4 50.2 C 21 53.4 18 55.7 15 55.3 C 11.7 54.9 9.3 51.7 9.8 48.5 C 10.3 45.4 13.3 43.2 16.4 43.7 C 19.5 44.3 21.8 47.2 21.4 50.2"></path>
  <path d="M 15.4 47.8 C 16.1 47.8 16.7 48.4 16.6 49.2"></path>
  <path d="M 14 21.5 L 23.5 20"></path>
  <path d="M 19 21 C 19.5 25 21 28.5 23 32 C 24.5 35 25 38 24 41 C 23.5 42.5 23 43.2 22.6 43.4"></path>
  <path d="M 23 43 C 28.5 42.7 33.5 42.7 38.5 43"></path>
  <path d="M 38.5 43 C 38.8 39 41.5 36 45.5 35.2 C 49.5 34.5 53.2 35.5 54.6 37.8 C 55.4 39.6 55.6 41.8 55 43.6"></path>
  <path d="M 51 35.8 C 53 35 55 34.8 57 35.4"></path>
  <path d="M 6.5 27 C 6.2 30.5 6 35 6.3 39 L 16 39 C 16 35 16 31 16 27.5 Z"></path>
  <path d="M 9 30.5 L 9.2 36.5"></path>
  <path d="M 12.5 30.5 L 12.7 36.5"></path>
  <path d="M 7 31.5 L 15.5 31.8"></path>
  <path d="M 19 20 L 19.3 14"></path>
  <path d="M 17 13.8 C 17 12.5 18 12 19.3 12 C 20.5 12 21.6 12.6 21.5 13.8 C 21.4 14.5 20.7 15 19.5 15"></path>
</svg>