<svg xmlns="http://www.w3.org/2000/svg" viewBox="0 0 64 64" width="64" height="64" fill="none" stroke="#D17B5E" stroke-width="2" stroke-linecap="round" stroke-linejoin="round">
  <path d="M 32 46 L 11 47 L 16 24 L 32 26 Z"></path>
  <path d="M 32 46 L 53 47 L 48 24 L 32 26 Z"></path>
  <path d="M 32 26 C 31.5 33 31.5 39 32 46"></path>
  <path d="M 17.5 30 C 21 30 25 30.2 30 30.5"></path>
  <path d="M 18 34 C 22 34 26 34.2 30 34.5"></path>
  <path d="M 18.5 38 C 22 38 25 38.2 28 38.5"></path>
  <path d="M 19 42 C 22 42 25 42.2 27 42.5"></path>
  <path d="M 34 30.5 C 38 30.2 42 30 46.5 30"></path>
  <path d="M 34 34.5 C 38 34.2 42 34 46 34"></path>
  <path d="M 34 38.5 C 37 38.2 40 38 43 38"></path>
  <path d="M 50 41 L 53.5 47 L 47 44 Z"></path>
  <path d="M 53 47 C 54 47 54.5 46.6 54.5 46"></path>
</svg>