<svg xmlns="http://www.w3.org/2000/svg" viewBox="0 0 64 64" width="64" height="64" fill="none" stroke="#D17B5E" stroke-width="2" stroke-linecap="round" stroke-linejoin="round">
  <path d="M 9 22 L 22 22 L 23 19 L 34 19 L 35 22 L 55 22"></path>
  <path d="M 9 22 L 8.5 47 C 8.6 48.5 9.7 49.6 11 49.7 L 53 49.7 C 54.3 49.6 55.4 48.5 55.5 47 L 55 22"></path>
  <path d="M 38 35.5 C 37.7 41 33.2 45.3 27.7 45 C 22.4 44.7 18.4 40 18.7 34.7 C 19 29.4 23.7 25.4 29 25.7 C 34.3 26 38.3 30.3 38 35.5 Z"></path>
  <path d="M 33 35.5 C 32.8 38.6 30.1 40.9 27 40.7 C 24.1 40.5 21.9 38 22.1 35 C 22.3 32.1 24.8 29.9 27.7 30.1"></path>
  <path d="M 25.5 32 L 26.5 33"></path>
  <path d="M 42.5 28 L 49.5 28 L 49.5 33 L 42.5 33 Z"></path>
  <path d="M 47 19 L 47 16 L 51 16 L 51 19"></path>
  <path d="M 44 19 L 44 17"></path>
  <path d="M 11 22 L 11 24"></path>
  <path d="M 53 22 L 53 24"></path>
</svg>