<svg xmlns="http://www.w3.org/2000/svg" viewBox="0 0 64 64" width="64" height="64" fill="none" stroke="#D17B5E" stroke-width="2" stroke-linecap="round" stroke-linejoin="round">
  <path d="M 22 11 C 19.5 10.5 17 11 16.5 13"></path>
  <path d="M 38 11 C 40.5 10.5 43 11 43.5 13"></path>
  <path d="M 17 13.5 C 16.5 18 18 22 22 24 C 25 25.5 27 26.5 28 28"></path>
  <path d="M 43 13.5 C 43.5 18 41 22 36.5 23.5 C 32 25 30 26 29 28"></path>
  <path d="M 28.5 28.5 C 27 33 26 37 28 41 C 30 45 34 47 38 47.5"></path>
  <path d="M 38 47.5 L 41 48"></path>
  <path d="M 53.5 49 C 53.2 52 50.7 54.2 47.5 54 C 44.5 53.8 42.2 51.2 42.4 48.4 C 42.6 45.5 45.2 43.3 48.2 43.5 C 51.3 43.7 53.7 46.2 53.5 49 Z"></path>
  <path d="M 50.5 49.4 C 50.2 50.7 49 51.6 47.5 51.5"></path>
</svg>