<svg xmlns="http://www.w3.org/2000/svg" viewBox="0 0 64 64" width="64" height="64" fill="none" stroke="#D17B5E" stroke-width="2" stroke-linecap="round" stroke-linejoin="round">
  <path d="M 13 11 C 13 9.5 14 8.5 15.5 8.4 L 43 8 L 50 14 C 50.3 24 50.5 42 50 53.5 C 49.9 55 48.8 56 47.3 56 L 14.5 55.5 C 13 55.5 12 54.5 12 53 Z"></path>
  <path d="M 43 8 L 43.5 14 L 50 14"></path>
  <path d="M 18 20 C 22 19.8 27 19.8 31 20"></path>
  <path d="M 18 22 C 22 21.8 27 21.8 31 22"></path>
  <path d="M 18 28 C 24 27.8 36 27.8 45 28"></path>
  <path d="M 18 32 C 24 31.8 36 31.8 44 32"></path>
  <path d="M 18 36 C 24 35.8 34 35.8 41 36"></path>
  <path d="M 18 47 C 19 45.5 20 45.5 20.5 47 C 21 48.5 22 48.5 23 47 C 24 45.5 25 45.5 26.5 47 C 27.5 48 28 48 29 47"></path>
  <path d="M 45.5 46.5 C 45.3 49 43.2 50.8 40.8 50.6 C 38.4 50.4 36.6 48.2 36.8 45.8 C 37 43.4 39.1 41.6 41.5 41.8 C 43.9 42 45.7 44.1 45.5 46.5 Z"></path>
  <path d="M 41.2 43.5 L 42 45.5 L 44 45.5 L 42.5 47 L 43 49 L 41.2 47.7 L 39.5 49 L 40 47 L 38.5 45.5 L 40.5 45.5 Z"></path>
</svg>