<svg xmlns="http://www.w3.org/2000/svg" viewBox="0 0 64 64" width="64" height="64" fill="none" stroke="#D17B5E" stroke-width="2" stroke-linecap="round" stroke-linejoin="round">
  <path d="M 24 7 C 21.5 7.4 20 9 19.8 11.5 L 17 51 C 16.8 53.5 18.4 55.2 21 55.4 L 41 56.5 C 43.5 56.6 45.4 54.9 45.5 52.5 L 47.5 13 C 47.6 10.5 46 8.8 43.5 8.6 Z"></path>
  <path d="M 28.5 11 C 30.5 11 33.5 11 35.5 11"></path>
  <path d="M 23 22 C 23 20 24.2 19 26.2 19 L 39 19.5 C 40.8 19.6 42 21 41.9 22.8 L 41.5 30 C 41.4 31.5 40 32.6 38.4 32.4 L 32 32 L 28 35.5 L 28.5 31.7 L 25 31.4 C 23.5 31.3 22.8 30 22.8 28.5 Z"></path>
  <path d="M 27 24 C 30 24 33 24.1 37 24.3"></path>
  <path d="M 27 27 C 29 27 31 27.1 33 27.3"></path>
  <path d="M 27 51.5 C 29 51.6 33 51.7 35 51.8"></path>
</svg>