<svg xmlns="http://www.w3.org/2000/svg" viewBox="0 0 64 64" width="64" height="64" fill="none" stroke="#D17B5E" stroke-width="2" stroke-linecap="round" stroke-linejoin="round">
  <path d="M 32 26 C 29 22 28 16 30 11 C 31 9.5 33 9.5 34.5 11 C 36.5 16 35.5 22 32.5 26"></path>
  <path d="M 34 27 C 38.5 25 43.5 22.5 48 23 C 49.7 23.2 50 25 49 26.5 C 45.5 31 39.5 32.5 34.5 30.5"></path>
  <path d="M 35 31 C 38 33.5 41 37 41.5 41.5 C 41.6 43 40.2 44 38.5 43.3 C 34 41.5 31.7 36.5 31.7 32.5"></path>
  <path d="M 30 32 C 26 36 21.5 39 17 39 C 15.5 38.8 15 37 16 35.5 C 19 30.5 24.5 29 29 29.5"></path>
  <path d="M 29.5 27 C 25 24.5 21 21 19.5 17 C 19.2 15.5 20.5 14.2 22.2 14.7 C 27 16.5 30 21 30.5 25.5"></path>
  <path d="M 32 29 C 32.6 28.7 33.3 29 33.2 29.7 C 33.1 30.5 32.2 30.7 31.7 30.3 C 31.3 30 31.5 29.2 32 29 Z"></path>
  <path d="M 38 43 C 41 47 44 51 46 55"></path>
  <path d="M 42 50 C 46 49 50 50.5 52 53 C 49.5 53.6 46 53.4 43.5 51.5"></path>
  <path d="M 44 50.3 C 47 51 49.5 52 51 53"></path>
</svg>