<svg xmlns="http://www.w3.org/2000/svg" style="display:none" fill="none" stroke="#D17B5E" stroke-width="2" stroke-linecap="round" stroke-linejoin="round">
  <symbol id="bike-transport" viewBox="0 0 64 64">
  <path d="M 53.6 50.2 C 53.2 53.4 50.4 55.7 47.4 55.4 C 44 55 41.6 51.8 42.1 48.5 C 42.6 45.4 45.6 43.2 48.7 43.7 C 51.8 44.3 54 47.2 53.6 50.2"></path>
  <path d="M 47.5 47.8 C 48.2 47.8 48.8 48.4 48.7 49.2"></path>
  <path d="M 21.4 50.2 C 21 53.4 18 55.7 15 55.3 C 11.7 54.9 9.3 51.7 9.8 48.5 C 10.3 45.4 13.3 43.2 16.4 43.7 C 19.5 44.3 21.8 47.2 21.4 50.2"></path>
  <path d="M 15.4 47.8 C 16.1 47.8 16.7 48.4 16.6 49.2"></path>
  <path d="M 14 21.5 L 23.5 20"></path>
  <path d="M 19 21 C 19.5 25 21 28.5 23 32 C 24.5 35 25 38 24 41 C 23.5 42.5 23 43.2 22.6 43.4"></path>
  <path d="M 23 43 C 28.5 42.7 33.5 42.7 38.5 43"></path>
  <path d="M 38.5 43 C 38.8 39 41.5 36 45.5 35.2 C 49.5 34.5 53.2 35.5 54.6 37.8 C 55.4 39.6 55.6 41.8 55 43.6"></path>
  <path d="M 51 35.8 C 53 35 55 34.8 57 35.4"></path>
  <path d="M 6.5 27 C 6.2 30.5 6 35 6.3 39 L 16 39 C 16 35 16 31 16 27.5 Z"></path>
  <path d="M 9 30.5 L 9.2 36.5"></path>
  <path d="M 12.5 30.5 L 12.7 36.5"></path>
  <path d="M 7 31.5 L 15.5 31.8"></path>
  <path d="M 19 20 L 19.3 14"></path>
  <path d="M 17 13.8 C 17 12.5 18 12 19.3 12 C 20.5 12 21.6 12.6 21.5 13.8 C 21.4 14.5 20.7 15 19.5 15"></path>
  </symbol>
  <symbol id="healthcare" viewBox="0 0 64 64">
  <path d="M 22 11 C 19.5 10.5 17 11 16.5 13"></path>
  <path d="M 38 11 C 40.5 10.5 43 11 43.5 13"></path>
  <path d="M 17 13.5 C 16.5 18 18 22 22 24 C 25 25.5 27 26.5 28 28"></path>
  <path d="M 43 13.5 C 43.5 18 41 22 36.5 23.5 C 32 25 30 26 29 28"></path>
  <path d="M 28.5 28.5 C 27 33 26 37 28 41 C 30 45 34 47 38 47.5"></path>
  <path d="M 38 47.5 L 41 48"></path>
  <path d="M 53.5 49 C 53.2 52 50.7 54.2 47.5 54 C 44.5 53.8 42.2 51.2 42.4 48.4 C 42.6 45.5 45.2 43.3 48.2 43.5 C 51.3 43.7 53.7 46.2 53.5 49 Z"></path>
  <path d="M 50.5 49.4 C 50.2 50.7 49 51.6 47.5 51.5"></path>
  </symbol>
  <symbol id="household-repairs" viewBox="0 0 64 64">
  <g transform="rotate(-28 32 32)">
    <path d="M 8 33.5 C 5.5 33.5 5 29.5 8 29.4 L 41 28.5 L 41 21 L 56 21 L 56 28 L 47 28 L 47 36 L 56 36 L 56 43 L 41 43 L 41 35.2 Z"></path>
    <path d="M 49 28 L 49 24"></path>
    <path d="M 49 36 L 49 40"></path>
  </g>
  <path d="M 8.5 56 C 13 55.7 17 55.7 21 56"></path>
  </symbol>
  <symbol id="food-dining" viewBox="0 0 64 64">
  <path d="M 48 30 C 48 35 41 38.5 31.5 38.5 C 22.5 38.5 16 35 16 30 C 16 25 22.5 21.5 32 21.5 C 41 21.5 48 25 48 30 Z"></path>
  <path d="M 19 28.5 C 20 25.5 25 23.5 30 23"></path>
  <path d="M 7.5 9 L 7.6 18"></path>
  <path d="M 10 9 L 10 18"></path>
  <path d="M 12.5 9 L 12.4 18"></path>
  <path d="M 7 18 C 7 20 7.5 21.5 9 22 L 11 22 C 12.5 21.5 13 20 13 18"></path>
  <path d="M 9 22 C 8.8 24 8.6 26 8.8 28"></path>
  <path d="M 11 22 C 11.2 24 11.4 26 11.2 28"></path>
  <path d="M 8.8 28 C 8.6 38 8.6 48 9 53"></path>
  <path d="M 11.2 28 C 11.4 38 11.4 48 11 53"></path>
  <path d="M 9 53 C 9 55 11 55 11 53"></path>
  <path d="M 52 8.5 C 50.5 8.5 49.5 10 49.5 12 L 49.5 26 L 56 26 L 56 12 C 56 10 55 9 53.5 8.7 Z"></path>
  <path d="M 49.5 26 L 49.5 28 L 56 28 L 56 26"></path>
  <path d="M 50 28 C 49.8 38 49.8 48 50 53"></path>
  <path d="M 55.5 28 C 55.7 38 55.7 48 55.5 53"></path>
  <path d="M 50 53 C 50 55 55.5 55 55.5 53"></path>
  </symbol>
  <symbol id="wellness-lifestyle" viewBox="0 0 64 64">
  <path d="M 32 26 C 29 22 28 16 30 11 C 31 9.5 33 9.5 34.5 11 C 36.5 16 35.5 22 32.5 26"></path>
  <path d="M 34 27 C 38.5 25 43.5 22.5 48 23 C 49.7 23.2 50 25 49 26.5 C 45.5 31 39.5 32.5 34.5 30.5"></path>
  <path d="M 35 31 C 38 33.5 41 37 41.5 41.5 C 41.6 43 40.2 44 38.5 43.3 C 34 41.5 31.7 36.5 31.7 32.5"></path>
  <path d="M 30 32 C 26 36 21.5 39 17 39 C 15.5 38.8 15 37 16 35.5 C 19 30.5 24.5 29 29 29.5"></path>
  <path d="M 29.5 27 C 25 24.5 21 21 19.5 17 C 19.2 15.5 20.5 14.2 22.2 14.7 C 27 16.5 30 21 30.5 25.5"></path>
  <path d="M 32 29 C 32.6 28.7 33.3 29 33.2 29.7 C 33.1 30.5 32.2 30.7 31.7 30.3 C 31.3 30 31.5 29.2 32 29 Z"></path>
  <path d="M 38 43 C 41 47 44 51 46 55"></path>
  <path d="M 42 50 C 46 49 50 50.5 52 53 C 49.5 53.6 46 53.4 43.5 51.5"></path>
  <path d="M 44 50.3 C 47 51 49.5 52 51 53"></path>
  </symbol>
  <symbol id="family-childcare" viewBox="0 0 64 64">
  <path d="M 19 14 C 19 16 17.5 17.5 15.5 17.5 C 13.5 17.5 12 16 12 14 C 12 12 13.5 10.5 15.5 10.5 C 17.5 10.5 19 12 19 14 Z"></path>
  <path d="M 15.5 18 C 16 22 16.5 26 17 32"></path>
  <path d="M 14 19 C 13 23 13 28 13.5 32"></path>
  <path d="M 15 32 C 13.5 38 11 44 9 51"></path>
  <path d="M 16 32 C 17.5 37 18 41 17.5 47"></path>
  <path d="M 14 22 C 11.5 25 10 28 9.5 31"></path>
  <path d="M 17 22 C 20 25 24 29 28 33"></path>
  <path d="M 28 33 L 31 34"></path>
  <path d="M 39 28 C 39 29.5 37.7 30.7 36.2 30.7 C 34.7 30.7 33.5 29.5 33.5 28 C 33.5 26.5 34.7 25.3 36.2 25.3 C 37.7 25.3 39 26.5 39 28 Z"></path>
  <path d="M 36 31 C 36 35 36 39 36 44"></path>
  <path d="M 34 32 C 33.5 35 33.5 39 34 44"></path>
  <path d="M 34 44 C 33 47 31.5 49.5 30 52"></path>
  <path d="M 36 44 C 36.5 47 37 49.5 38 52"></path>
  <path d="M 38 33 C 40 35 41 37 41.5 39"></path>
  <path d="M 34 33 L 31 34"></path>
  </symbol>
  <symbol id="classes-instruction" viewBox="0 0 64 64">
  <path d="M 32 46 L 11 47 L 16 24 L 32 26 Z"></path>
  <path d="M 32 46 L 53 47 L 48 24 L 32 26 Z"></path>
  <path d="M 32 26 C 31.5 33 31.5 39 32 46"></path>
  <path d="M 17.5 30 C 21 30 25 30.2 30 30.5"></path>
  <path d="M 18 34 C 22 34 26 34.2 30 34.5"></path>
  <path d="M 18.5 38 C 22 38 25 38.2 28 38.5"></path>
  <path d="M 19 42 C 22 42 25 42.2 27 42.5"></path>
  <path d="M 34 30.5 C 38 30.2 42 30 46.5 30"></path>
  <path d="M 34 34.5 C 38 34.2 42 34 46 34"></path>
  <path d="M 34 38.5 C 37 38.2 40 38 43 38"></path>
  <path d="M 50 41 L 53.5 47 L 47 44 Z"></path>
  <path d="M 53 47 C 54 47 54.5 46.6 54.5 46"></path>
  </symbol>
  <symbol id="tech-devices" viewBox="0 0 64 64">
  <path d="M 24 7 C 21.5 7.4 20 9 19.8 11.5 L 17 51 C 16.8 53.5 18.4 55.2 21 55.4 L 41 56.5 C 43.5 56.6 45.4 54.9 45.5 52.5 L 47.5 13 C 47.6 10.5 46 8.8 43.5 8.6 Z"></path>
  <path d="M 28.5 11 C 30.5 11 33.5 11 35.5 11"></path>
  <path d="M 23 22 C 23 20 24.2 19 26.2 19 L 39 19.5 C 40.8 19.6 42 21 41.9 22.8 L 41.5 30 C 41.4 31.5 40 32.6 38.4 32.4 L 32 32 L 28 35.5 L 28.5 31.7 L 25 31.4 C 23.5 31.3 22.8 30 22.8 28.5 Z"></path>
  <path d="M 27 24 C 30 24 33 24.1 37 24.3"></path>
  <path d="M 27 27 C 29 27 31 27.1 33 27.3"></path>
  <path d="M 27 51.5 C 29 51.6 33 51.7 35 51.8"></path>
  </symbol>
  <symbol id="events" viewBox="0 0 64 64">
  <path d="M 9 22 L 22 22 L 23 19 L 34 19 L 35 22 L 55 22"></path>
  <path d="M 9 22 L 8.5 47 C 8.6 48.5 9.7 49.6 11 49.7 L 53 49.7 C 54.3 49.6 55.4 48.5 55.5 47 L 55 22"></path>
  <path d="M 38 35.5 C 37.7 41 33.2 45.3 27.7 45 C 22.4 44.7 18.4 40 18.7 34.7 C 19 29.4 23.7 25.4 29 25.7 C 34.3 26 38.3 30.3 38 35.5 Z"></path>
  <path d="M 33 35.5 C 32.8 38.6 30.1 40.9 27 40.7 C 24.1 40.5 21.9 38 22.1 35 C 22.3 32.1 24.8 29.9 27.7 30.1"></path>
  <path d="M 25.5 32 L 26.5 33"></path>
  <path d="M 42.5 28 L 49.5 28 L 49.5 33 L 42.5 33 Z"></path>
  <path d="M 47 19 L 47 16 L 51 16 L 51 19"></path>
  <path d="M 44 19 L 44 17"></path>
  <path d="M 11 22 L 11 24"></path>
  <path d="M 53 22 L 53 24"></path>
  </symbol>
  <symbol id="admin-financial" viewBox="0 0 64 64">
  <path d="M 18 12 C 22 8 32 8 38 10 C 42 11.2 44 13 43.5 15 C 43 16.5 41 17 39 16"></path>
  <path d="M 19 13 C 19 22 19 32 19.5 44"></path>
  <path d="M 43.5 15.5 C 43.6 25 43.7 35 44 47"></path>
  <path d="M 23 22 C 27 21.8 33 21.8 36 22"></path>
  <path d="M 23 26 C 26 25.8 30 25.8 33 26"></path>
  <path d="M 23 30 C 28 29.8 35 29.8 40 30"></path>
  <path d="M 23 34 C 28 33.9 38 33.9 40.5 34"></path>
  <path d="M 23 38.5 C 25 38.4 27 38.4 28.5 38.5"></path>
  <path d="M 33 39 L 36 42 L 41 36.5"></path>
  <path d="M 19.5 44 L 22 47 L 25 44 L 28 47 L 31 44 L 34 47 L 37 44 L 40 47 L 44 44"></path>
  </symbol>
  <symbol id="legal-documents" viewBox="0 0 64 64">
  <path d="M 13 11 C 13 9.5 14 8.5 15.5 8.4 L 43 8 L 50 14 C 50.3 24 50.5 42 50 53.5 C 49.9 55 48.8 56 47.3 56 L 14.5 55.5 C 13 55.5 12 54.5 12 53 Z"></path>
  <path d="M 43 8 L 43.5 14 L 50 14"></path>
  <path d="M 18 20 C 22 19.8 27 19.8 31 20"></path>
  <path d="M 18 22 C 22 21.8 27 21.8 31 22"></path>
  <path d="M 18 28 C 24 27.8 36 27.8 45 28"></path>
  <path d="M 18 32 C 24 31.8 36 31.8 44 32"></path>
  <path d="M 18 36 C 24 35.8 34 35.8 41 36"></path>
  <path d="M 18 47 C 19 45.5 20 45.5 20.5 47 C 21 48.5 22 48.5 23 47 C 24 45.5 25 45.5 26.5 47 C 27.5 48 28 48 29 47"></path>
  <path d="M 45.5 46.5 C 45.3 49 43.2 50.8 40.8 50.6 C 38.4 50.4 36.6 48.2 36.8 45.8 C 37 43.4 39.1 41.6 41.5 41.8 C 43.9 42 45.7 44.1 45.5 46.5 Z"></path>
  <path d="M 41.2 43.5 L 42 45.5 L 44 45.5 L 42.5 47 L 43 49 L 41.2 47.7 L 39.5 49 L 40 47 L 38.5 45.5 L 40.5 45.5 Z"></path>
  </symbol>
  <symbol id="pet-care" viewBox="0 0 64 64">
  <path d="M 36 19 C 35 14 36.5 10.5 39 11 C 41.5 12 42 16 40 19"></path>
  <path d="M 42 17 C 42.5 13 44 11 45.5 11.8 C 47 13 47 16 45.5 18"></path>
  <path d="M 36 19 C 36 17 38 17 40 17"></path>
  <path d="M 40 17 C 41 17 42 17 42 17.5"></path>
  <path d="M 45.5 18 C 47 19 49 21 50.5 23"></path>
  <path d="M 50.5 23 C 52 23.5 53.5 24 54.5 25.5"></path>
  <path d="M 54.5 25.5 C 54.7 26.5 54 27.2 53 27"></path>
  <path d="M 53 27 L 49.5 27.5"></path>
  <path d="M 49.5 27.5 C 47 28 45 28 43 28"></path>
  <path d="M 43 28 C 41.5 30 40.5 32.5 40 36"></path>
  <path d="M 40 36 C 40 40 40 44 40 48"></path>
  <path d="M 37 50 C 39 50.5 41.5 50.5 43 50"></path>
  <path d="M 40 48 C 40 49 40 49.5 40 50"></path>
  <path d="M 35 36 C 35 41 35 46 35 49.5"></path>
  <path d="M 32 50 C 34 50.5 35.5 50.5 37 50"></path>
  <path d="M 35 38 C 28 39 22 40 16 41"></path>
  <path d="M 16 41 C 11 41 9 37 10 32 C 11 27 14 25 18 25"></path>
  <path d="M 18 25 C 24 24 30 24 36 25"></path>
  <path d="M 12 47 C 12 50 13.5 50.5 15 50.5 L 22 50.5"></path>
  <path d="M 14 30 C 10 27 8 22 11 19 C 13 17 16 18 16.5 21 C 17 23.5 15.5 25.5 13 25"></path>
  <path d="M 46 22.5 L 46.8 22.7"></path>
  <path d="M 53.5 25 L 54.3 25.4"></path>
  </symbol>
</svg>